<?xml version="1.0" encoding="utf-8"?>
<!-- Generator: Adobe Illustrator 23.0.0, SVG Export Plug-In . SVG Version: 6.00 Build 0)  -->
<svg version="1.1" id="Layer_1" xmlns="http://www.w3.org/2000/svg" xmlns:xlink="http://www.w3.org/1999/xlink" x="0px" y="0px"
	 viewBox="0 0 155 40" style="enable-background:new 0 0 155 40;" xml:space="preserve">
<style type="text/css">
	.st0{clip-path:url(#SVGID_2_);fill:#FFFFFF;}
	.st1{clip-path:url(#SVGID_2_);fill:#2B3D50;}
</style>
<g>
	<defs>
		<rect id="SVGID_1_" x="1.67" y="1.52" width="151.65" height="36.96"/>
	</defs>
	<clipPath id="SVGID_2_">
		<use xlink:href="#SVGID_1_"  style="overflow:visible;"/>
	</clipPath>
	<path class="st0" d="M31.43,28.31c0-1.62-1.31-2.93-2.93-2.93c-1.61,0-2.92,1.31-2.92,2.93c0,1.62,1.31,2.92,2.92,2.92
		C30.12,31.24,31.43,29.93,31.43,28.31 M34.61,32.81c0-1.1-0.88-1.99-1.96-1.99c-1.08,0-1.96,0.89-1.96,1.99
		c0,1.1,0.88,1.99,1.96,1.99C33.73,34.8,34.61,33.91,34.61,32.81"/>
	<path class="st1" d="M59.47,18.6H56v14.52h3.47V18.6z M26.67,17.85c0,4.78-3.88,8.66-8.66,8.66s-8.66-3.88-8.66-8.66
		c0-4.78,3.88-8.66,8.66-8.66S26.67,13.07,26.67,17.85 M32.07,26.16c1.44-2.43,2.27-5.27,2.27-8.31c0-9.02-7.31-16.33-16.33-16.33
		S1.67,8.83,1.67,17.85c0,9.02,7.31,16.33,16.33,16.33c3.05,0,5.91-0.84,8.35-2.3c-1.2-0.73-2-2.05-2-3.55
		c0-2.3,1.86-4.16,4.16-4.16C30.02,24.17,31.33,24.97,32.07,26.16 M47.83,33.1h3.75V18.49h-3.95v7.1c0,1.86-0.62,4.27-3.48,4.27
		c-2.54,0-2.57-1.85-2.57-3.62v-7.74h-3.95v9.15c0,3.27,1.84,5.69,5.44,5.69c2.06,0,3.5-0.9,4.71-2.31h0.06V33.1z M59.67,14.37
		c0-1.08-0.88-1.96-1.96-1.96c-1.08,0-1.96,0.88-1.96,1.96s0.88,1.96,1.96,1.96C58.79,16.33,59.67,15.45,59.67,14.37 M74.5,25.91
		c0,2.49-1.89,4.51-4.22,4.51c-2.33,0-4.22-2.02-4.22-4.51s1.89-4.51,4.22-4.51C72.61,21.4,74.5,23.42,74.5,25.91 M77.91,38.48
		V18.61h-3.53v2.09c-1.26-1.45-3.04-2.36-5.02-2.36c-3.82,0-6.91,3.37-6.91,7.53s3.1,7.53,6.91,7.53c1.98,0,3.76-0.91,5.02-2.36
		v7.43H77.91z"/>
	<path class="st1" d="M124.67,33.19c1.97-0.91,3.66-2.12,5.09-3.63s2.54-3.25,3.34-5.22c0.8-1.98,1.2-4.03,1.2-6.16
		c0-2.04-0.38-4.04-1.14-6.02c-0.76-1.98-1.83-3.74-3.22-5.29c-1.39-1.55-3.07-2.8-5.04-3.74c-1.97-0.94-4.15-1.41-6.54-1.41
		c-2.33,0-4.48,0.45-6.45,1.34c-1.97,0.9-3.67,2.1-5.11,3.6c-1.44,1.5-2.56,3.25-3.36,5.22c-0.8,1.98-1.2,4.03-1.2,6.16
		c0,2.1,0.39,4.14,1.16,6.11c0.77,1.98,1.85,3.73,3.25,5.27c1.39,1.54,3.07,2.77,5.04,3.72c1.97,0.94,4.15,1.41,6.54,1.41
		C120.56,34.56,122.7,34.1,124.67,33.19"/>
	<path class="st0" d="M122.83,19.96l-7.57-7.61c-0.11-0.11-0.27-0.14-0.41-0.08c-0.14,0.06-0.23,0.2-0.23,0.35v4.17h-12.32
		c-0.03,0.42-0.05,0.84-0.05,1.27c0,1.91,0.33,3.77,0.97,5.58h11.4v4.19c0,0.15,0.09,0.29,0.23,0.35c0.14,0.06,0.3,0.03,0.41-0.08
		l7.57-7.59c0.07-0.07,0.11-0.17,0.11-0.27C122.94,20.13,122.9,20.03,122.83,19.96"/>
	<path class="st0" d="M138.23,13.22c0.56,0.29,1.26,0.56,2.11,0.8c0.85,0.24,1.83,0.52,2.95,0.82c1.54,0.43,2.94,0.89,4.18,1.39
		c1.24,0.5,2.29,1.12,3.16,1.87c0.86,0.75,1.53,1.65,2,2.71c0.47,1.06,0.7,2.34,0.7,3.83c0,1.82-0.34,3.37-1.02,4.63
		c-0.68,1.26-1.58,2.28-2.7,3.06c-1.12,0.77-2.41,1.34-3.86,1.69s-2.95,0.53-4.5,0.53c-1.18,0-2.39-0.09-3.63-0.27
		c-1.24-0.18-2.45-0.45-3.63-0.8c-1.18-0.35-2.32-0.77-3.43-1.25c-0.12-0.05-0.23-0.11-0.35-0.16c0.3-0.28,0.59-0.56,0.86-0.85
		c1.38-1.48,2.5-3.16,3.36-5.04c0.98,0.42,2.07,0.8,3.28,1.13c1.21,0.33,2.44,0.5,3.68,0.5c2.63,0,3.95-0.81,3.95-2.42
		c0-0.61-0.2-1.11-0.59-1.5c-0.39-0.4-0.94-0.75-1.64-1.07c-0.7-0.32-1.52-0.62-2.48-0.89c-0.95-0.27-1.99-0.58-3.11-0.91
		c-0.53-0.16-1.03-0.33-1.51-0.51c0.08-0.7,0.13-1.41,0.13-2.13c0-2.3-0.42-4.56-1.27-6.79c-0.84-2.23-2.04-4.22-3.6-5.97
		c-0.04-0.04-0.08-0.08-0.12-0.13c0.38-0.45,0.78-0.87,1.24-1.24c1.09-0.9,2.35-1.57,3.79-2.03s2.96-0.68,4.56-0.68
		c1.12,0,2.23,0.11,3.32,0.32c1.09,0.21,2.14,0.49,3.13,0.82c1,0.33,1.93,0.72,2.79,1.14c0.86,0.43,1.66,0.85,2.39,1.28l-3.27,6.2
		c-0.09-0.12-0.41-0.35-0.95-0.68c-0.55-0.33-1.23-0.68-2.04-1.05c-0.82-0.36-1.71-0.69-2.68-0.96c-0.97-0.27-1.94-0.41-2.91-0.41
		c-2.66,0-4,0.9-4,2.69c0,0.55,0.14,1,0.43,1.37C137.24,12.6,137.67,12.93,138.23,13.22 M101.7,11.26c-0.9,2.23-1.34,4.55-1.34,6.94
		c0,1.69,0.22,3.35,0.67,4.98c-1.17,0.09-2.26,0.36-3.46,0.36h-6.54v10.44h-7.45V1.6h13.76c1.54,0,2.96,0.32,4.25,0.96
		c1.29,0.64,2.39,1.48,3.32,2.51c0.14,0.15,0.26,0.32,0.39,0.47C103.77,7.2,102.57,9.11,101.7,11.26 M100.05,10.59
		c-0.2-0.55-0.46-1-0.79-1.37c-0.33-0.36-0.71-0.63-1.14-0.8c-0.43-0.17-0.85-0.25-1.27-0.25h-5.81v8.85h6.09
		c0.88,0,1.63-0.38,2.27-1.14c0.64-0.76,0.95-1.87,0.95-3.33C100.34,11.79,100.24,11.13,100.05,10.59"/>
</g>
</svg>
